<?xml version="1.0" encoding="iso-8859-1"?>
<!-- Generator: Adobe Illustrator 19.0.0, SVG Export Plug-In . SVG Version: 6.00 Build 0)  -->
<svg version="1.1" id="Layer_1" xmlns="http://www.w3.org/2000/svg" xmlns:xlink="http://www.w3.org/1999/xlink" x="0px" y="0px"
	 viewBox="0 0 512 512" style="enable-background:new 0 0 512 512;" xml:space="preserve">
<g>
	<path style="fill:#FB8028;" d="M359.312,501.801H152.689c-78.216,0-141.849-63.634-141.849-141.849V152.049
		c0-78.217,63.633-141.85,141.849-141.85h206.623c78.216,0,141.849,63.633,141.849,141.85v207.903
		C501.161,438.167,437.527,501.801,359.312,501.801z M152.689,68.492c-46.074,0-83.557,37.483-83.557,83.557v207.903
		c0,46.074,37.483,83.557,83.557,83.557h206.623c46.074,0,83.557-37.483,83.557-83.557V152.049
		c0-46.074-37.483-83.557-83.557-83.557C359.312,68.492,152.689,68.492,152.689,68.492z"/>
	<path style="fill:#FB8028;" d="M256,377.621c-67.063,0-121.622-54.56-121.622-121.621c0-67.063,54.56-121.622,121.622-121.622
		c67.062,0,121.621,54.56,121.621,121.622C377.622,323.062,323.063,377.621,256,377.621z M256,191.24
		c-35.708,0-64.76,29.051-64.76,64.76s29.051,64.76,64.76,64.76s64.76-29.051,64.76-64.76S291.708,191.24,256,191.24z"/>
	<path style="fill:#FB8028;" d="M380.485,152.988c-11.84,0-21.473-9.632-21.473-21.472c0-11.84,9.633-21.472,21.472-21.472
		c11.84,0,21.472,9.632,21.472,21.472S392.325,152.988,380.485,152.988z"/>
</g>
<g>
	<path style="fill:#C63F00;" d="M359.312,512H152.689C68.849,512,0.641,443.792,0.641,359.951V152.049
		C0.641,68.208,68.849,0,152.689,0h206.623c83.839,0,152.048,68.208,152.048,152.049v207.904
		C511.359,443.792,443.151,512,359.312,512z M152.689,20.398c-72.593,0-131.65,59.057-131.65,131.65v207.904
		c0,72.592,59.057,131.649,131.65,131.649h206.623c72.592,0,131.649-59.057,131.649-131.65V152.049
		c0-72.593-59.057-131.65-131.649-131.65H152.689z M359.312,453.707H152.689c-51.698,0-93.756-42.058-93.756-93.755V152.049
		c0-51.698,42.058-93.755,93.756-93.755h206.623c51.697,0,93.755,42.058,93.755,93.755v207.904
		C453.067,411.649,411.009,453.707,359.312,453.707z M152.689,78.691c-40.45,0-73.358,32.908-73.358,73.357v207.904
		c0,40.449,32.908,73.357,73.358,73.357h206.623c40.449,0,73.357-32.908,73.357-73.357V152.049
		c0-40.449-32.908-73.357-73.357-73.357H152.689V78.691z"/>
	<path style="fill:#C63F00;" d="M256,387.821c-72.687,0-131.821-59.134-131.821-131.821S183.314,124.178,256,124.178
		S387.821,183.313,387.821,256S328.687,387.821,256,387.821z M256,144.577c-61.438,0-111.422,49.984-111.422,111.423
		c0,61.438,49.984,111.422,111.422,111.422S367.422,317.438,367.422,256C367.422,194.561,317.439,144.577,256,144.577z M256,330.959
		c-41.332,0-74.959-33.627-74.959-74.959s33.627-74.959,74.959-74.959s74.959,33.627,74.959,74.959S297.333,330.959,256,330.959z
		 M256,201.439c-30.085,0-54.561,24.476-54.561,54.561s24.476,54.561,54.561,54.561s54.561-24.476,54.561-54.561
		C310.561,225.914,286.085,201.439,256,201.439z"/>
	<path style="fill:#C63F00;" d="M380.485,163.187c-17.464,0-31.673-14.207-31.673-31.672s14.209-31.673,31.673-31.673
		c17.463,0,31.672,14.209,31.672,31.673S397.948,163.187,380.485,163.187z M380.485,120.241c-6.216,0-11.274,5.057-11.274,11.274
		c0,6.216,5.058,11.273,11.274,11.273c6.216,0,11.273-5.057,11.273-11.273C391.759,125.299,386.702,120.241,380.485,120.241z"/>
	<path style="fill:#C63F00;" d="M239.681,483.442h-95.873c-5.633,0-10.199-4.566-10.199-10.199s4.566-10.199,10.199-10.199h95.873
		c5.633,0,10.199,4.566,10.199,10.199S245.314,483.442,239.681,483.442z"/>
	<path style="fill:#C63F00;" d="M278.438,483.442h-6.12c-5.632,0-10.199-4.566-10.199-10.199s4.567-10.199,10.199-10.199h6.12
		c5.632,0,10.199,4.566,10.199,10.199S284.071,483.442,278.438,483.442z"/>
</g>
<g>
</g>
<g>
</g>
<g>
</g>
<g>
</g>
<g>
</g>
<g>
</g>
<g>
</g>
<g>
</g>
<g>
</g>
<g>
</g>
<g>
</g>
<g>
</g>
<g>
</g>
<g>
</g>
<g>
</g>
</svg>
